<svg xmlns="http://www.w3.org/2000/svg" width="20" height="20" viewBox="0 0 20 20">
    <path fill="#555" d="M.365 5.833h12.882a.366.366 0 0 1 .365.365v6.344A1.459 1.459 0 0 1 12.153 14H1.458A1.459 1.459 0 0 1 0 12.542V6.2a.366.366 0 0 1 .365-.367zM13.611 4.5V3.4a1.459 1.459 0 0 0-1.458-1.458h-1.459V.365A.366.366 0 0 0 10.33 0h-.34a.366.366 0 0 0-.365.365v1.58H3.986V.365A.366.366 0 0 0 3.622 0h-.34a.366.366 0 0 0-.365.365v1.58H1.458A1.459 1.459 0 0 0 0 3.4v1.1a.366.366 0 0 0 .365.365h12.882a.366.366 0 0 0 .364-.365z" transform="translate(3.155 2)"/>
</svg>
